<svg height="480pt" viewBox="0 0 480.00385 480" width="480pt" xmlns="http://www.w3.org/2000/svg" xmlns:xlink="http://www.w3.org/1999/xlink"><linearGradient id="a"><stop offset="0" stop-color="#fff33b"/><stop offset=".014" stop-color="#fee72e"/><stop offset=".042" stop-color="#fed51b"/><stop offset=".07" stop-color="#fdca10"/><stop offset=".1" stop-color="#fdc70c"/><stop offset=".4" stop-color="#f3903f"/><stop offset=".8" stop-color="#ed683c"/><stop offset="1" stop-color="#e93e3a"/></linearGradient><linearGradient id="b" gradientUnits="userSpaceOnUse" x1="240.001927" x2="240.001927" xlink:href="#a" y1="-20.566075" y2="503.033925"/><linearGradient id="c" gradientUnits="userSpaceOnUse" x1="136.001927" x2="136.001927" xlink:href="#a" y1="-20.566075" y2="503.033925"/><linearGradient id="d" gradientUnits="userSpaceOnUse" x1="264.001927" x2="264.001927" xlink:href="#a" y1="-20.566075" y2="503.033925"/><linearGradient id="e" gradientUnits="userSpaceOnUse" x1="392.001927" x2="392.001927" xlink:href="#a" y1="-20.566075" y2="503.033925"/><path d="m472 432h-8v-24c0-4.417969-3.578125-8-8-8v-120c4.421875 0 8-3.578125 8-8v-32c0-4.417969-3.578125-8-8-8v-120h16c2.574219.003906 4.988281-1.234375 6.492188-3.320312 1.503906-2.085938 1.914062-4.765626 1.101562-7.207032l-32-96c-1.089844-3.265625-4.148438-5.472656-7.59375-5.472656h-400c-3.441406 0-6.5 2.207031-7.589844 5.472656l-32 96c-.8125 2.441406-.4023435 5.121094 1.101563 7.207032 1.503906 2.085937 3.917969 3.324218 6.488281 3.320312h16v120c-4.417969 0-8 3.582031-8 8v32c0 4.421875 3.582031 8 8 8v120c-4.417969 0-8 3.582031-8 8v24h-8c-4.417969 0-8 3.582031-8 8v32c0 4.421875 3.582031 8 8 8h464c4.421875 0 8-3.578125 8-8v-32c0-4.417969-3.578125-8-8-8zm-440-168v-16h416v16zm120-32h-80v-80h80zm128 0h-80v-80h80zm128 0h-80v-80h80zm-362.230469-216h388.464844l26.671875 80h-441.808594zm-5.769531 96h400v120h-16v-88c0-4.417969-3.578125-8-8-8h-96c-4.417969 0-8 3.582031-8 8v88h-16v-88c0-4.417969-3.578125-8-8-8h-96c-4.417969 0-8 3.582031-8 8v88h-16v-88c0-4.417969-3.578125-8-8-8h-96c-4.417969 0-8 3.582031-8 8v88h-16zm0 168h400v120h-16v-88c0-4.417969-3.578125-8-8-8h-96c-4.417969 0-8 3.582031-8 8v88h-16v-88c0-4.417969-3.578125-8-8-8h-96c-4.417969 0-8 3.582031-8 8v88h-16v-88c0-4.417969-3.578125-8-8-8h-96c-4.417969 0-8 3.582031-8 8v88h-16zm368 120h-80v-80h80zm-128 0h-80v-80h80zm-128 0h-80v-80h80zm-120 16h416v16h-416zm432 48h-448v-16h448zm0 0" fill="url(#b)"/><path d="m128 184h16v16h-16zm0 0" fill="url(#c)"/><path d="m256 184h16v16h-16zm0 0" fill="url(#d)"/><path d="m384 184h16v16h-16zm0 0" fill="url(#e)"/><path d="m128 352h16v16h-16zm0 0" fill="url(#c)"/><path d="m256 352h16v16h-16zm0 0" fill="url(#d)"/><path d="m384 352h16v16h-16zm0 0" fill="url(#e)"/></svg>